<svg xmlns="http://www.w3.org/2000/svg" version="1.0" preserveAspectRatio="xMidYMid meet" viewBox="63.18 362.15 1001.65 474.38">

<g transform="translate(0.000000,1130.000000) scale(0.100000,-0.100000)" fill="#ffffff" stroke="none">
<path d="M3175 7669 c-387 -23 -786 -102 -1092 -214 -146 -54 -404 -184 -523 -263 -511 -340 -796 -801 -903 -1456 -20 -127 -21 -167 -24 -1250 -3 -707 0 -1143 6 -1183 25 -164 136 -291 303 -350 47 -16 88 -18 383 -18 297 0 335 2 385 19 143 49 229 132 288 280 15 37 17 153 22 1171 5 1039 7 1138 24 1225 115 596 521 931 1215 1001 146 15 463 6 591 -16 377 -67 656 -212 833 -434 38 -48 66 -75 76 -73 72 15 1326 323 1330 327 15 15 -147 259 -256 386 -381 441 -977 722 -1733 818 -293 38 -619 48 -925 30z"/>
<path d="M9620 7669 c-173 -28 -321 -179 -350 -355 -6 -35 -10 -482 -10 -1106 0 -873 -2 -1066 -15 -1161 -49 -372 -225 -666 -509 -844 -236 -150 -573 -233 -941 -233 -641 0 -1115 235 -1323 655 -93 188 -130 365 -141 675 l-6 186 -660 -161 c-363 -89 -672 -164 -687 -168 -26 -7 -28 -11 -28 -62 0 -150 53 -433 116 -625 258 -779 909 -1283 1894 -1464 515 -95 1152 -95 1670 0 552 101 1012 311 1347 616 188 170 317 341 432 569 111 222 174 421 217 694 16 99 18 223 21 1249 3 787 1 1155 -7 1190 -37 181 -183 321 -362 346 -80 12 -585 11 -658 -1z"/>
</g>
</svg>